<svg xmlns="http://www.w3.org/2000/svg" xmlns:svg="http://www.w3.org/2000/svg" xmlns:xlink="http://www.w3.org/1999/xlink" id="svg119" width="56" height="56" version="1.1" viewBox="0 0 56 56"><metadata id="metadata123"/><title id="title2">Group</title><defs id="defs91"><linearGradient id="c" x1="50%" x2="50%" y1="0%" y2="100%"><stop id="stop4" offset="3.611%" stop-color="#7283D8"/><stop id="stop6" offset="100%" stop-color="#7081D5"/></linearGradient><circle id="b" cx="24" cy="24" r="24"/><filter id="a" width="133.3%" height="133.3%" x="-16.7%" y="-10.4%" filterUnits="objectBoundingBox"><feMorphology id="feMorphology10" in="SourceAlpha" operator="dilate" radius="1.5" result="shadowSpreadOuter1"/><feOffset id="feOffset12" dy="2" in="shadowSpreadOuter1" result="shadowOffsetOuter1"/><feGaussianBlur id="feGaussianBlur14" in="shadowOffsetOuter1" result="shadowBlurOuter1" stdDeviation="1.5"/><feComposite id="feComposite16" in="shadowBlurOuter1" in2="SourceAlpha" operator="out" result="shadowBlurOuter1"/><feColorMatrix id="feColorMatrix18" in="shadowBlurOuter1" result="shadowMatrixOuter1" values="0 0 0 0 0 0 0 0 0 0 0 0 0 0 0 0 0 0 0.04 0"/><feMorphology id="feMorphology20" in="SourceAlpha" operator="dilate" radius="1.5" result="shadowSpreadOuter2"/><feOffset id="feOffset22" dy="1" in="shadowSpreadOuter2" result="shadowOffsetOuter2"/><feGaussianBlur id="feGaussianBlur24" in="shadowOffsetOuter2" result="shadowBlurOuter2" stdDeviation=".5"/><feComposite id="feComposite26" in="shadowBlurOuter2" in2="SourceAlpha" operator="out" result="shadowBlurOuter2"/><feColorMatrix id="feColorMatrix28" in="shadowBlurOuter2" result="shadowMatrixOuter2" values="0 0 0 0 0 0 0 0 0 0 0 0 0 0 0 0 0 0 0.06 0"/><feMerge id="feMerge34"><feMergeNode id="feMergeNode30" in="shadowMatrixOuter1"/><feMergeNode id="feMergeNode32" in="shadowMatrixOuter2"/></feMerge></filter><filter id="d" width="122.9%" height="122.9%" x="-11.5%" y="-5.2%" filterUnits="objectBoundingBox"><feOffset id="feOffset37" in="SourceAlpha" result="shadowOffsetInner1"/><feComposite id="feComposite39" in="shadowOffsetInner1" in2="SourceAlpha" k2="-1" k3="1" operator="arithmetic" result="shadowInnerInner1"/><feColorMatrix id="feColorMatrix41" in="shadowInnerInner1" values="0 0 0 0 1 0 0 0 0 1 0 0 0 0 1 0 0 0 0.197322237 0"/></filter><linearGradient id="g" x1="50%" x2="50%" y1="0%" y2="100%"><stop id="stop44" offset="0%" stop-color="#FFF"/><stop id="stop46" offset="100%" stop-color="#F5F8FD"/></linearGradient><circle id="f" cx="24" cy="24" r="22.5"/><filter id="e" width="131.1%" height="131.1%" x="-15.6%" y="-8.9%" filterUnits="objectBoundingBox"><feMorphology id="feMorphology50" in="SourceAlpha" operator="dilate" radius=".5" result="shadowSpreadOuter1"/><feOffset id="feOffset52" dy="2" in="shadowSpreadOuter1" result="shadowOffsetOuter1"/><feGaussianBlur id="feGaussianBlur54" in="shadowOffsetOuter1" result="shadowBlurOuter1" stdDeviation="1.5"/><feComposite id="feComposite56" in="shadowBlurOuter1" in2="SourceAlpha" operator="out" result="shadowBlurOuter1"/><feColorMatrix id="feColorMatrix58" in="shadowBlurOuter1" result="shadowMatrixOuter1" values="0 0 0 0 0 0 0 0 0 0 0 0 0 0 0 0 0 0 0.04 0"/><feMorphology id="feMorphology60" in="SourceAlpha" operator="dilate" radius=".5" result="shadowSpreadOuter2"/><feOffset id="feOffset62" dy="1" in="shadowSpreadOuter2" result="shadowOffsetOuter2"/><feGaussianBlur id="feGaussianBlur64" in="shadowOffsetOuter2" result="shadowBlurOuter2" stdDeviation=".5"/><feComposite id="feComposite66" in="shadowBlurOuter2" in2="SourceAlpha" operator="out" result="shadowBlurOuter2"/><feColorMatrix id="feColorMatrix68" in="shadowBlurOuter2" result="shadowMatrixOuter2" values="0 0 0 0 0 0 0 0 0 0 0 0 0 0 0 0 0 0 0.06 0"/><feMerge id="feMerge74"><feMergeNode id="feMergeNode70" in="shadowMatrixOuter1"/><feMergeNode id="feMergeNode72" in="shadowMatrixOuter2"/></feMerge></filter><filter id="h" width="124.4%" height="124.4%" x="-12.2%" y="-5.6%" filterUnits="objectBoundingBox"><feGaussianBlur id="feGaussianBlur77" in="SourceAlpha" result="shadowBlurInner1" stdDeviation=".5"/><feOffset id="feOffset79" dy="1" in="shadowBlurInner1" result="shadowOffsetInner1"/><feComposite id="feComposite81" in="shadowOffsetInner1" in2="SourceAlpha" k2="-1" k3="1" operator="arithmetic" result="shadowInnerInner1"/><feColorMatrix id="feColorMatrix83" in="shadowInnerInner1" values="0 0 0 0 1 0 0 0 0 1 0 0 0 0 1 0 0 0 1 0"/></filter><linearGradient id="i" x1="50%" x2="50%" y1="0%" y2="100%"><stop id="stop86" offset="0%" stop-color="#7586DB"/><stop id="stop88" offset="100%" stop-color="#697ACD"/></linearGradient></defs><g id="g117" fill="none" fill-rule="evenodd"><g id="g103" transform="translate(4 2)"><use id="use93" fill="#000" filter="url(#a)" xlink:href="#b"/><use id="use95" fill="url(#c)" xlink:href="#b"/><use id="use97" fill="#000" filter="url(#d)" xlink:href="#b"/><circle id="circle99" cx="24" cy="24" r="24.75" stroke="#FFF" stroke-width="1.5"/><circle id="circle101" cx="24" cy="24" r="24.25" stroke="#232A50" stroke-opacity=".595" stroke-width=".5"/></g><g id="g113" transform="translate(4 2)"><use id="use105" fill="#000" filter="url(#e)" xlink:href="#f"/><use id="use107" fill="url(#g)" xlink:href="#f"/><circle id="circle111" cx="24" cy="24" r="22.75" stroke="#272E50" stroke-opacity=".178" stroke-width=".5"/></g><path id="path115" fill="url(#i)" d="M27.687 15.75a5.753 5.753 0 0 0-2.812.726c-1.499.838-2.5 2.32-2.5 4.01v7.028c0 1.266-1.26 2.292-2.812 2.292-1.554 0-2.813-1.026-2.813-2.292 0-.9.64-1.678 1.567-2.053.067-.027.135-.052.205-.075.584-.229 1.085-.66 1.27-1.159.275-.737-.236-1.335-1.141-1.335-.226 0-.454.037-.675.104l-.003.001c-1.309.368-2.4 1.173-3.056 2.225a4.312 4.312 0 0 0-.667 2.292c0 2.611 2.383 4.736 5.313 4.736a5.754 5.754 0 0 0 2.812-.726c1.498-.838 2.5-2.32 2.5-4.01v-7.028c0-1.266 1.26-2.292 2.812-2.292 1.554 0 2.813 1.026 2.813 2.292 0 .94-.694 1.747-1.686 2.1-.64.21-1.165.664-1.365 1.2-.273.735.235 1.33 1.136 1.33.204 0 .41-.035.612-.09l.098-.028c1.3-.37 2.386-1.173 3.038-2.22.424-.68.667-1.46.667-2.292 0-2.611-2.383-4.736-5.313-4.736" transform="translate(4 2)"/></g></svg>